Pearl Harbor *2001*[BluRay][1080p][ENG, POL, CHN]

General information:
Country: USA
Release: 21 May 2001
Genre: Action, Drama, Romance, War 
Director: Michael Bay
Screenplay: Randall Wallace
Original Music: Hans Zimmer
Cinematography by: John Schwartzman
Duration: 3h 3mn
Language: English, Polish, Chinese (in the separate file) 
Subtitles: English, Polish
Rating: 7.4/10 - 32556 votes 

Cast:
Ben Affleck  ...  Capt. Rafe McCawley  
Josh Hartnett  ...  Capt. Danny Walker  
Kate Beckinsale  ...  Nurse Lt. Evelyn Johnson  
Cuba Gooding Jr.  ...  Petty Officer Doris Miller  
Jon Voight  ...  President Franklin Delano Roosevelt  
Alec Baldwin  ...  Lt. Col. James Doolittle  
Tom Sizemore  ...  Sgt. Earl Sistern  
William Lee Scott  ...  Lt. Billy Thompson  
Greg Zola  ...  Lt. Anthony Fusco  
Ewen Bremner  ...  Lt. Red Winkle  
Jaime King  ...  Nurse Betty Bayer (as James King)  
Catherine Kellner  ...  Nurse Barbara  
Jennifer Garner  ...  Nurse Sandra  
Sara Rue  ...  Nurse Martha  
Michael Shannon  ...  Lt. Gooz Wood  

Plot:
Pearl Harbor follows the story of two best friends, Rafe and Danny, and their love lives as they go off to join the war. 

Specifications:
General
Format                           : Matroska
Overall bit rate                 : 11.4 Mbps

Video
Format                           : AVC
Format/Info                      : Advanced Video Codec
Format profile                   : High@L4.1
Format settings, CABAC           : Yes
Format settings, ReFrames        : 3 frames
Muxing mode                      : Container profile=Unknown@4.1
Codec ID                         : V_MPEG4/ISO/AVC
Bit rate                         : 10.1 Mbps
Width                            : 1 920 pixels
Height                           : 1 080 pixels
Display aspect ratio             : 16:9
Frame rate                       : 23.976 fps

Audio 1
Format                           : AC-3
Format/Info                      : Audio Coding 3
Mode extension                   : CM (complete main)
Codec ID                         : A_AC3
Bit rate mode                    : Constant
Bit rate                         : 640 Kbps
Channel(s)                       : 6 channels
Channel positions                : Front: L C R, Side: L R, LFE
Sampling rate                    : 48.0 KHz
Stream size                      : 838 MiB (6%)
Title                            : English

Audio 2
Format                           : AC-3
Format/Info                      : Audio Coding 3
Mode extension                   : CM (complete main)
Codec ID                         : A_AC3
Bit rate mode                    : Constant
Bit rate                         : 448 Kbps
Channel(s)                       : 6 channels
Channel positions                : Front: L C R, Side: L R, LFE
Sampling rate                    : 48.0 KHz
Stream size                      : 587 MiB (4%)
Title                            : Polish
Language                         : Polish

Text 
Format                           : UTF-8
Codec ID                         : S_TEXT/UTF8
Codec ID/Info                    : UTF-8 Plain Text

Audio Chinese (in the separate file)
Format                           : AC-3
Format/Info                      : Audio Coding 3
Mode extension                   : CM (complete main)
Bit rate mode                    : Constant
Bit rate                         : 384 Kbps
Channel(s)                       : 6 channels
Channel positions                : Front: L C R, Side: L R, LFE
Sampling rate                    : 48.0 KHz
